<svg xmlns="http://www.w3.org/2000/svg" xml:space="preserve" baseProfile="basic" viewBox="0 0 153 50.9">
<path fill="#fff" d="M389.7 126.6v-10.5c0-.6-.2-.8-.7-.8h-23.7c-1.6 0-1.5-.1-1.5 1.6v84.5c0 .8.2.9.9.9H388.3c1.6 0 1.4.1 1.4-1.5v-44c0-2.2.1-4.3.4-6.4.4-2.7 1.3-5.3 2.9-7.5 1.7-2.4 3.9-4.2 6.7-5.2 3.1-1.1 6.2-1.3 9.4-.8 5 .8 8.7 3.5 11 8.1 1.5 2.9 2 6 2 9.1.1 15.6 0 31.3 0 46.9 0 1.3 0 1.3 1.3 1.3h22.9c1.7 0 1.5.1 1.5-1.5V153c0-2.1 0-4.2-.2-6.3-.2-2.7-.6-5.3-1.3-7.9-1.6-6.4-4.5-12-9.3-16.4-2.4-2.2-5-4-8-5.3-4-1.8-8.3-2.5-12.6-2.7-1.6-.1-3.2 0-4.8.2-1.4.1-2.9.3-4.3.6-4.1.9-7.9 2.5-11.4 5.1-1.7 1.3-3.3 2.6-4.7 4.3-.2.6-.6 1.4-1.5 2zm195.6 2.9V116.8c0-1.5.1-1.4-1.4-1.4h-24c-.4 0-.6.2-.6.6v85c0 1.5 0 1.5 1.4 1.5h23.1c1.5 0 1.4.1 1.4-1.5v-31.6c0-3.4-.1-6.9.2-10.3.2-2.5.6-5 1.5-7.3s2.4-4.2 4.4-5.6c2.9-2 6.2-3 9.6-3.2 2.7-.2 5.5-.4 8.3-.3h1.6c1 0 1 0 1.1-1.1v-26.1c0-1 0-1-1-1-1.4 0-2.8.2-4.2.5-3.9.6-7.4 2-10.7 4.1-3.5 2.2-6.6 5.1-9.1 8.5-.4.5-.7 1.3-1.6 1.9zm-362.9 29.1v42.8c0 .8.1.9 1 1h23.5c1.6 0 1.5.1 1.5-1.5v-84.6c0-.9 0-.9-1-.9h-23.5c-1.6 0-1.5-.1-1.5 1.6v41.6zm13-52.4h1.2c3.7 0 6.9-1.2 9.6-3.7 4.4-4 5.6-9 4.1-14.8-1.3-4.6-4.3-7.5-8.6-9.2-3.2-1.3-6.6-1.3-10-.7-4.7.9-8.2 3.5-10.3 7.9-1.3 2.7-1.6 5.5-1.1 8.5.8 4.9 3.6 8.2 7.8 10.4 2.2 1.3 4.7 1.8 7.3 1.6z"/><path fill="#eca700" d="M115.5 203.6c.2-.5-.2-.8-.4-1.2-4.5-7.8-8.9-15.7-13.4-23.5-8.7-15.3-17.4-30.6-26.1-45.8C65.3 115 55.1 97 44.8 79 34.7 61.3 24.6 43.6 14.6 25.9 9.9 17.7 5.2 9.5.6 1.3.4 1 .1.6 0 .2.4-.1.8 0 1.2 0h53.4c.9 0 1.4.3 1.8 1.1l26.4 46.5c9.3 16.4 18.7 32.8 28 49.1l5.1 9c.1.2.3.3.4.3-.1.5.3.9.5 1.3 6.3 11.1 12.7 22.2 19 33.4 2.6 4.5 5.1 9.1 7.8 13.6.4.7.4 1.2 0 1.8-7.7 13.4-15.3 26.9-23 40.3-1.2 2.1-2.4 4.1-3.5 6.2-.2.3-.5.6-.3 1h-1.3z"/><path fill="#d8d8d8" d="M498.3 203.6c-.3-.4-.6-.4-1-.5-6-.6-11.5-2.5-16.7-5.6-3.4-2-6.4-4.4-9-7.4-3.5-4.1-6.3-8.7-8-13.9-1-3-1.7-6-2.2-9-.6-4-.7-8-.5-12 .3-5.1 1.2-10.1 3-14.9 1.4-3.8 3.3-7.2 5.7-10.4 2.8-3.8 6.2-6.9 10.1-9.3 4.3-2.7 8.9-4.4 13.8-5.4 4.5-1 9.1-1.2 13.7-.9a42.74 42.74 0 0 1 23.3 8.4c2.8 2.2 5.2 4.8 7.4 7.7 2.5 3.4 4.3 7.1 5.6 11.1 1 3.1 1.7 6.2 2 9.4.3 2.7.6 5.4.4 8.1-.1 1.8-.1 3.7-.4 5.5-.1.4-.2.6-.7.6h-56.4c-1.7 0-1.6 0-1.5 1.7.2 1.8.7 3.6 1.3 5.3.7 1.9 1.8 3.6 3.1 5 1.4 1.5 3.2 2.7 5.1 3.5 2.1.9 4.3 1.3 6.6 1.2 2.7-.1 5.3-.6 7.7-2 1.9-1.1 3.5-2.6 4.5-4.6.7-1.4 1.5-1.9 3.1-1.8 8 .1 15.9 0 23.9 0h.8c.8 0 .8.1.6.8-1.3 4.9-3.5 9.3-6.5 13.3-3.1 4.2-6.9 7.5-11.4 10.1a41.9 41.9 0 0 1-14.1 5.1c-.6.1-1.1.2-1.7.2-.4 0-.8.1-1 .5-3.6.2-7.1.2-10.6.2zm4.6-53.1h15c1.2 0 1.2 0 1.2-1.3 0-1.9-.5-3.7-1.3-5.4-1.7-3.6-4.6-5.9-8.3-7.3-3.2-1.2-6.4-1.2-9.7-.7-4.2.7-7.5 2.8-10 6.3-1.5 2.1-2.3 4.4-2.8 6.9-.3 1.4-.3 1.4 1.1 1.4 4.9.1 9.9.1 14.8.1zM300.6 203.6c-.4-.3-.8-.4-1.3-.5a42.83 42.83 0 0 1-21.5-8.7c-2.6-2-4.9-4.4-6.9-7-1.6-2-2.9-4.2-4-6.4a47 47 0 0 1-3.8-10.9c-.5-2.8-1-5.6-1-8.5 0-1.1-.3-2.3-.2-3.5.3-2.9.3-5.7.8-8.6.8-4.6 2.2-9 4.3-13.1 1.3-2.5 2.8-4.8 4.6-6.9 2.4-3.1 5.3-5.7 8.5-7.8a43.53 43.53 0 0 1 20.8-7.3c2.2-.3 4.4-.2 6.6-.2 3 0 6 .4 9 1 4.4.9 8.6 2.5 12.5 4.8 2.3 1.3 4.4 2.8 6.4 4.6 3.5 3 6.3 6.6 8.6 10.6 2.3 4.1 3.9 8.4 4.8 13.1 1 4.8 1.2 9.6.9 14.4-.4 5.8-1.6 11.4-4.2 16.7-1.6 3.4-3.6 6.6-6.1 9.5-2.7 3.2-5.8 5.8-9.3 8-4.1 2.6-8.5 4.4-13.1 5.4-1.7.4-3.4.8-5.2.9-.4 0-.8.1-1 .5-3.2-.1-6.7-.1-10.2-.1zm22.9-44.6c.1-2.6-.1-5-.6-7.4-.9-4.2-2.8-7.7-6-10.4-1.2-1-2.5-1.9-3.9-2.5-2.3-1-4.7-1.4-7.1-1.4-3.1 0-6 .7-8.7 2.4-2.5 1.5-4.4 3.6-5.9 6.2-2 3.6-2.6 7.6-2.8 11.7-.1 2.2.1 4.5.4 6.7.4 2.8 1.2 5.5 2.6 8 3 5.1 7.4 7.8 13 8.3 3.5.3 6.9-.5 9.9-2.4 3.7-2.3 6.3-5.4 7.7-9.6 1.1-3.2 1.5-6.4 1.4-9.6z"/><path fill="#df5a1e" d="M116.4 106c-.2-.1-.4-.1-.4-.3.4-.2.5-.6.7-.9C128 85 139.2 65.2 150.5 45.4c.4-.7.5-1.3 0-2-4.2-7.3-8.4-14.6-12.5-21.9-3.1-5.4-6.1-10.8-9.2-16.1-.8-1.4-1.7-2.9-2.5-4.3-.1-.2-.4-.4-.2-.8h106c0 .5-.3.8-.5 1.2-11.1 19.5-22.2 39-33.3 58.6l-25.8 45.3c-.4.7-.8.9-1.5.9h-53.8c-.3-.2-.6-.3-.8-.3z"/><path fill="#d8d8d8" d="M389.7 126.6c.9-.6 1.3-1.4 1.8-2 1.3-1.7 3-3 4.7-4.3 3.4-2.5 7.3-4.1 11.4-5.1 1.4-.3 2.8-.5 4.3-.6 1.6-.2 3.2-.2 4.8-.2 4.3.2 8.6.9 12.6 2.7 3 1.3 5.6 3.1 8 5.3 4.8 4.4 7.7 10 9.3 16.4.7 2.6 1 5.2 1.3 7.9.2 2.1.2 4.2.2 6.3v47.8c0 1.7.1 1.5-1.5 1.5h-22.9c-1.3 0-1.3 0-1.3-1.3v-46.9c0-3.2-.6-6.3-2-9.1-2.3-4.6-6-7.3-11-8.1-3.2-.5-6.4-.3-9.4.8-2.8 1-5 2.8-6.7 5.2-1.6 2.2-2.5 4.8-2.9 7.5-.3 2.1-.4 4.3-.4 6.4v44c0 1.6.1 1.5-1.4 1.5H365c-.7 0-.9-.2-.9-.9v-84.5c0-1.7-.1-1.6 1.5-1.6h23.7c.6 0 .7.2.7.8v4.8c-.3 1.9-.3 3.7-.3 5.7zM585.3 129.5c.8-.7 1.2-1.4 1.7-2.1 2.5-3.4 5.5-6.3 9.1-8.5a28 28 0 0 1 10.7-4.1c1.4-.2 2.8-.4 4.2-.5 1 0 1 0 1 1v26.1c0 1 0 1.1-1.1 1.1h-1.6c-2.8-.1-5.5.1-8.3.3-3.4.3-6.7 1.2-9.6 3.2-2 1.4-3.5 3.3-4.4 5.6-.9 2.4-1.3 4.8-1.5 7.3-.3 3.4-.1 6.9-.2 10.3v31.6c0 1.5.1 1.5-1.4 1.5h-23.1c-1.4 0-1.4 0-1.4-1.5v-85c0-.4.2-.6.6-.6h24c1.5 0 1.4-.1 1.4 1.4V128c-.1.6-.1 1-.1 1.5zM222.4 158.6v-41.7c0-1.7-.1-1.6 1.5-1.6h23.5c.9 0 .9 0 1 .9v84.6c0 1.6.1 1.5-1.5 1.5h-23.5c-.8 0-.9-.1-1-1v-42.7zM235.4 106.2c-2.6.2-5.1-.3-7.4-1.5-4.2-2.1-7-5.5-7.8-10.4-.5-3-.2-5.9 1.1-8.5 2.1-4.4 5.7-7.1 10.3-7.9 3.3-.6 6.7-.6 10 .7 4.2 1.7 7.3 4.6 8.6 9.2 1.6 5.7.3 10.8-4.1 14.8-2.7 2.5-6 3.7-9.6 3.7-.3-.1-.7-.1-1.1-.1z"/></svg>